<?xml version="1.0" standalone="no"?>
<!DOCTYPE svg PUBLIC "-//W3C//DTD SVG 20010904//EN"
 "http://www.w3.org/TR/2001/REC-SVG-20010904/DTD/svg10.dtd">
<svg version="1.0" xmlns="http://www.w3.org/2000/svg"
 width="221.000000pt" height="300.000000pt" viewBox="0 0 221.000000 300.000000"
 preserveAspectRatio="xMidYMid meet">
<metadata>
Created by potrace 1.15, written by Peter Selinger 2001-2017
</metadata>
<g transform="translate(0.000000,300.000000) scale(0.100000,-0.100000)"
fill="#000000" stroke="none">
<path d="M845 2961 c-130 -34 -192 -59 -300 -122 -263 -155 -438 -404 -501
-714 -20 -98 -29 -297 -15 -345 5 -19 17 -75 26 -123 22 -126 56 -221 140
-392 91 -185 219 -381 445 -680 218 -289 241 -317 356 -442 52 -56 94 -106 94
-112 0 -6 7 -11 15 -11 8 0 15 4 15 10 0 5 53 72 117 147 209 247 476 614 628
868 152 252 273 550 298 733 6 45 15 82 19 82 4 0 8 47 8 105 0 58 -3 105 -8
105 -4 0 -13 34 -19 74 -26 159 -107 313 -252 475 -155 172 -342 285 -565 341
-103 26 -135 30 -255 30 -116 -1 -152 -5 -246 -29z m265 -541 c0 -3 14 -5 32
-4 35 2 110 -18 178 -49 41 -19 145 -97 162 -122 3 -5 18 -23 32 -40 29 -33
58 -91 82 -162 13 -39 18 -137 13 -248 -4 -80 -97 -251 -161 -296 -18 -13 -34
-27 -36 -31 -2 -4 -10 -8 -18 -8 -8 0 -14 -4 -14 -10 0 -5 -7 -10 -15 -10 -8
0 -15 -4 -15 -9 0 -9 -45 -31 -71 -34 -8 -2 -20 -6 -27 -11 -31 -19 -240 -28
-278 -11 -23 10 -22 10 -59 20 -47 13 -100 43 -137 78 -18 18 -36 32 -40 32
-12 0 -88 108 -112 160 -28 60 -50 149 -42 170 3 8 2 15 -2 15 -4 0 -7 20 -7
45 0 25 3 45 6 45 3 0 4 10 2 23 -12 61 87 254 165 322 90 79 221 133 310 127
12 0 22 2 22 7 0 4 7 8 15 8 8 0 15 -3 15 -7z"/>
</g>
</svg>
