<svg xmlns="http://www.w3.org/2000/svg" xmlns:xlink="http://www.w3.org/1999/xlink" version="1.1" x="0px" y="0px" viewBox="0 0 100 125" width="62px" height="62px" style="enable-background:new 0 0 100 100;" xml:space="preserve"><path d="M74.749,12.754C68.139,6.141,59.352,2.5,50.001,2.5c-9.35,0-18.139,3.641-24.748,10.254  C18.642,19.361,14.999,28.15,14.999,37.5c0,6.32,1.461,11.618,4.598,16.669c2.77,4.463,6.482,8.147,10.416,12.051  c7.25,7.197,15.471,15.354,18.973,30.474c0.109,0.476,0.529,0.811,1.016,0.811c0.484,0,0.904-0.335,1.014-0.811  C54.52,81.574,62.74,73.419,69.992,66.22c3.932-3.901,7.646-7.588,10.412-12.051c3.137-5.051,4.6-10.349,4.6-16.669  C85.001,28.15,81.359,19.361,74.749,12.754z M50.001,64.77C34.964,64.77,22.73,52.54,22.73,37.5  c0-15.036,12.234-27.269,27.271-27.269c15.035,0,27.271,12.232,27.271,27.269S65.036,64.77,50.001,64.77z"/><path d="M67.581,35.141l-0.92-0.002c-0.015,0-0.024,0.002-0.041,0.005v-2.759c0-0.217-0.084-0.42-0.238-0.574  c-0.153-0.152-0.356-0.238-0.573-0.238h-0.701c-0.217,0-0.422,0.084-0.572,0.238c-0.154,0.154-0.24,0.357-0.24,0.574l0.002,9.779  c-0.002,0.217,0.086,0.42,0.238,0.574c0.15,0.154,0.355,0.238,0.572,0.238h0.699c0.217,0,0.42-0.084,0.574-0.238  c0.152-0.154,0.238-0.357,0.238-0.574v-2.758c0.014,0.002,0.025,0.003,0.041,0.003h0.92c0.146,0,0.285-0.058,0.389-0.163  c0.104-0.104,0.162-0.24,0.162-0.387v-3.17c0-0.146-0.059-0.283-0.162-0.389C67.866,35.197,67.727,35.139,67.581,35.141z"/><path d="M34.892,31.572h-0.701c-0.217,0-0.422,0.084-0.574,0.238c-0.154,0.153-0.238,0.357-0.238,0.572l0.002,2.76  c-0.018-0.002-0.031-0.004-0.045-0.004h-0.918c-0.146,0-0.285,0.059-0.389,0.162c-0.105,0.105-0.162,0.242-0.16,0.389v3.17  c-0.002,0.146,0.055,0.283,0.16,0.388c0.104,0.104,0.242,0.162,0.389,0.162h0.918c0.014,0,0.027-0.001,0.043-0.003v2.758  c0,0.449,0.365,0.813,0.813,0.813h0.701c0.215,0,0.42-0.084,0.572-0.238c0.154-0.154,0.24-0.357,0.24-0.574v-9.779  C35.704,31.938,35.339,31.572,34.892,31.572z"/><path d="M62.143,29.238h-1.226c-0.287,0-0.558,0.113-0.76,0.316c-0.205,0.203-0.316,0.473-0.316,0.761v5.272H40.157v-5.272  c0-0.595-0.482-1.077-1.076-1.077h-1.227c-0.287,0-0.555,0.113-0.758,0.316c-0.205,0.203-0.316,0.472-0.316,0.759v13.921  c0,0.594,0.48,1.076,1.076,1.076h1.225c0.285,0,0.557-0.113,0.76-0.317c0.203-0.203,0.316-0.473,0.316-0.757v-5.271h19.684v5.271  c0,0.591,0.482,1.074,1.076,1.074h1.226c0.287,0,0.558-0.113,0.76-0.317c0.203-0.201,0.316-0.472,0.316-0.759V30.313  C63.219,29.721,62.734,29.238,62.143,29.238z"/><text x="0" y="115" fill="#000000" font-size="5px" font-weight="bold" font-family="'Helvetica Neue', Helvetica, Arial-Unicode, Arial, Sans-serif">Created by Stock Image Folio</text><text x="0" y="120" fill="#000000" font-size="5px" font-weight="bold" font-family="'Helvetica Neue', Helvetica, Arial-Unicode, Arial, Sans-serif">from the Noun Project</text></svg>